<svg version="1.1" xmlns="http://www.w3.org/2000/svg" xmlns:xlink="http://www.w3.org/1999/xlink" width="24" height="24" viewBox="0,0,256,256"><g fill="none" fill-rule="nonzero" stroke="#94d82d" stroke-width="2" stroke-linecap="round" stroke-linejoin="round" stroke-miterlimit="10" stroke-dasharray="" stroke-dashoffset="0" font-family="none" font-weight="none" font-size="none" text-anchor="none" style="mix-blend-mode: normal"><g transform="translate(-0.00004,-0.00004)"><g><g transform="scale(10.66667,10.66667)"><path d="M12,1v22"></path><path d="M17,5h-7.5c-0.92826,0 -1.8185,0.36875 -2.47487,1.02513c-0.65638,0.65637 -1.02513,1.54661 -1.02513,2.47487c0,0.92826 0.36875,1.8185 1.02513,2.4749c0.65637,0.6564 1.54661,1.0251 2.47487,1.0251h5c0.9283,0 1.8185,0.3687 2.4749,1.0251c0.6564,0.6564 1.0251,1.5466 1.0251,2.4749c0,0.9283 -0.3687,1.8185 -1.0251,2.4749c-0.6564,0.6564 -1.5466,1.0251 -2.4749,1.0251h-8.5"></path></g></g></g></g></svg>