<svg version="1.1" xmlns="http://www.w3.org/2000/svg" xmlns:xlink="http://www.w3.org/1999/xlink" width="24" height="24" viewBox="0,0,256,256"><g fill="none" fill-rule="nonzero" stroke="#000000" stroke-width="2" stroke-linecap="round" stroke-linejoin="round" stroke-miterlimit="10" stroke-dasharray="" stroke-dashoffset="0" font-family="none" font-weight="none" font-size="none" text-anchor="none" style="mix-blend-mode: normal"><g transform="translate(0.00004,0.06113) scale(10.66667,10.66667)"><path d="M22,11.08v0.92c-0.0012,2.1564 -0.6995,4.2547 -1.9907,5.9818c-1.2911,1.7272 -3.106,2.9907 -5.1739,3.6021c-2.068,0.6114 -4.2781,0.538 -6.30094,-0.2093c-2.02279,-0.7473 -3.74981,-2.1285 -4.92351,-3.9375c-1.17369,-1.8091 -1.73117,-3.949 -1.58928,-6.1008c0.14188,-2.15175 0.97553,-4.19999 2.3766,-5.83924c1.40108,-1.63925 3.29451,-2.78169 5.39791,-3.25693c2.10342,-0.47523 4.30412,-0.25781 6.27382,0.61986"></path><path d="M22,4l-10,10.01l-3,-3"></path></g></g></svg>